<svg width="11" height="8" viewBox="0 0 11 8" fill="none" xmlns="http://www.w3.org/2000/svg">
<path d="M5.65591 7.01063C5.53539 7.01063 5.42322 6.99139 5.31939 6.95293C5.21554 6.91446 5.11682 6.84843 5.02324 6.75485L0.529011 2.26063C0.390544 2.12218 0.319711 1.94814 0.316511 1.73853C0.313294 1.52891 0.384128 1.35167 0.529011 1.2068C0.673878 1.06193 0.849511 0.989502 1.05591 0.989502C1.26231 0.989502 1.43794 1.06193 1.58281 1.2068L5.65591 5.2799L9.72901 1.2068C9.86746 1.06835 10.0415 0.997518 10.2511 0.994301C10.4607 0.991101 10.6379 1.06193 10.7828 1.2068C10.9277 1.35167 11.0001 1.52731 11.0001 1.73373C11.0001 1.94013 10.9277 2.11576 10.7828 2.26063L6.28859 6.75485C6.195 6.84843 6.09629 6.91446 5.99244 6.95293C5.8886 6.99139 5.77643 7.01063 5.65591 7.01063Z" fill="#0D0D0D"/>
</svg>
