<svg width="18" height="19" viewBox="0 0 18 19" fill="none" xmlns="http://www.w3.org/2000/svg">
<g clip-path="url(#clip0_39_5523)">
<path d="M16.1251 3.50006H14.1251V5.00006C14.1251 5.14451 14.0967 5.28755 14.0414 5.42101C13.9861 5.55447 13.9051 5.67573 13.8029 5.77788C13.7008 5.88002 13.5795 5.96104 13.4461 6.01632C13.3126 6.07161 13.1696 6.10006 13.0251 6.10006C12.8807 6.10006 12.7376 6.07161 12.6042 6.01632C12.4707 5.96104 12.3495 5.88002 12.2473 5.77788C12.1452 5.67573 12.0641 5.55447 12.0089 5.42101C11.9536 5.28755 11.9251 5.14451 11.9251 5.00006V3.50006H6.10013V5.00006C6.10013 5.2918 5.98424 5.57158 5.77795 5.77787C5.57166 5.98416 5.29187 6.10006 5.00013 6.10006C4.70839 6.10006 4.4286 5.98416 4.22231 5.77787C4.01602 5.57158 3.90013 5.2918 3.90013 5.00006V3.50006H1.90013C1.78114 3.4987 1.66309 3.52122 1.55296 3.56629C1.44282 3.61135 1.34284 3.67804 1.25894 3.76242C1.17503 3.8468 1.10889 3.94714 1.06444 4.05752C1.01998 4.1679 0.998115 4.28608 1.00013 4.40506V15.5951C0.998142 15.7119 1.0192 15.8281 1.0621 15.9368C1.105 16.0455 1.1689 16.1448 1.25016 16.2288C1.33141 16.3129 1.42843 16.3801 1.53566 16.4266C1.6429 16.4731 1.75825 16.4981 1.87513 16.5001H16.1251C16.242 16.4981 16.3574 16.4731 16.4646 16.4266C16.5718 16.3801 16.6688 16.3129 16.7501 16.2288C16.8314 16.1448 16.8953 16.0455 16.9382 15.9368C16.9811 15.8281 17.0021 15.7119 17.0001 15.5951V4.40506C17.0021 4.28818 16.9811 4.17205 16.9382 4.06331C16.8953 3.95457 16.8314 3.85534 16.7501 3.7713C16.6688 3.68726 16.5718 3.62005 16.4646 3.57351C16.3574 3.52697 16.242 3.50201 16.1251 3.50006ZM5.00013 13.5001H4.00013V12.5001H5.00013V13.5001ZM5.00013 11.0001H4.00013V10.0001H5.00013V11.0001ZM5.00013 8.50006H4.00013V7.50006H5.00013V8.50006ZM8.00013 13.5001H7.00013V12.5001H8.00013V13.5001ZM8.00013 11.0001H7.00013V10.0001H8.00013V11.0001ZM8.00013 8.50006H7.00013V7.50006H8.00013V8.50006ZM11.0001 13.5001H10.0001V12.5001H11.0001V13.5001ZM11.0001 11.0001H10.0001V10.0001H11.0001V11.0001ZM11.0001 8.50006H10.0001V7.50006H11.0001V8.50006ZM14.0001 13.5001H13.0001V12.5001H14.0001V13.5001ZM14.0001 11.0001H13.0001V10.0001H14.0001V11.0001ZM14.0001 8.50006H13.0001V7.50006H14.0001V8.50006Z" fill="#B6C3CD"/>
<path d="M5 5.5C5.13261 5.5 5.25979 5.44732 5.35355 5.35355C5.44732 5.25979 5.5 5.13261 5.5 5V2C5.5 1.86739 5.44732 1.74021 5.35355 1.64645C5.25979 1.55268 5.13261 1.5 5 1.5C4.86739 1.5 4.74021 1.55268 4.64645 1.64645C4.55268 1.74021 4.5 1.86739 4.5 2V5C4.5 5.13261 4.55268 5.25979 4.64645 5.35355C4.74021 5.44732 4.86739 5.5 5 5.5Z" fill="#B6C3CD"/>
<path d="M13 5.5C13.1326 5.5 13.2598 5.44732 13.3536 5.35355C13.4473 5.25979 13.5 5.13261 13.5 5V2C13.5 1.86739 13.4473 1.74021 13.3536 1.64645C13.2598 1.55268 13.1326 1.5 13 1.5C12.8674 1.5 12.7402 1.55268 12.6464 1.64645C12.5527 1.74021 12.5 1.86739 12.5 2V5C12.5 5.13261 12.5527 5.25979 12.6464 5.35355C12.7402 5.44732 12.8674 5.5 13 5.5Z" fill="#B6C3CD"/>
</g>
<defs>
<clipPath id="clip0_39_5523">
<rect width="18" height="18" fill="white" transform="translate(0 0.5)"/>
</clipPath>
</defs>
</svg>
