<svg width="28" height="25" viewBox="0 0 28 25" fill="none" xmlns="http://www.w3.org/2000/svg">
<path d="M15.0001 13.0002V20.0002C15.0001 20.2655 14.8947 20.5198 14.7072 20.7073C14.5196 20.8949 14.2653 21.0002 14.0001 21.0002C13.7348 21.0002 13.4805 20.8949 13.293 20.7073C13.1054 20.5198 13.0001 20.2655 13.0001 20.0002V13.0002C13.0001 12.735 13.1054 12.4807 13.293 12.2931C13.4805 12.1056 13.7348 12.0002 14.0001 12.0002C14.2653 12.0002 14.5196 12.1056 14.7072 12.2931C14.8947 12.4807 15.0001 12.735 15.0001 13.0002ZM19.6051 12.9002L18.9051 19.9002C18.8912 20.0313 18.9034 20.1638 18.941 20.2901C18.9785 20.4164 19.0407 20.5341 19.1239 20.6363C19.207 20.7386 19.3096 20.8233 19.4256 20.8858C19.5417 20.9482 19.6689 20.9871 19.8001 21.0002C19.8338 21.0021 19.8676 21.0021 19.9013 21.0002C20.149 20.9999 20.3878 20.9077 20.5714 20.7414C20.7549 20.5752 20.8703 20.3467 20.8951 20.1002L21.5951 13.1002C21.6216 12.8364 21.5422 12.5727 21.3743 12.3674C21.2065 12.162 20.964 12.0318 20.7001 12.0052C20.4362 11.9787 20.1726 12.0581 19.9672 12.226C19.7619 12.3938 19.6316 12.6364 19.6051 12.9002ZM8.39507 12.9002C8.36855 12.6364 8.23828 12.3938 8.03293 12.226C7.82758 12.0581 7.56396 11.9787 7.30007 12.0052C7.03618 12.0318 6.79363 12.162 6.62579 12.3674C6.45794 12.5727 6.37855 12.8364 6.40507 13.1002L7.10507 20.1002C7.12994 20.3478 7.24618 20.5771 7.43109 20.7435C7.616 20.91 7.8563 21.0015 8.10507 21.0002C8.13879 21.0021 8.17259 21.0021 8.20632 21.0002C8.33698 20.9871 8.46378 20.9484 8.57948 20.8862C8.69517 20.8241 8.79749 20.7398 8.8806 20.6381C8.96371 20.5364 9.02598 20.4194 9.06385 20.2936C9.10172 20.1679 9.11445 20.0359 9.10132 19.9052L8.39507 12.9002ZM27.9913 9.13274L26.1076 23.2652C26.0419 23.7449 25.805 24.1846 25.4407 24.5034C25.0764 24.8223 24.6092 24.9987 24.1251 25.0002H3.87507C3.39096 24.9987 2.92371 24.8223 2.5594 24.5034C2.1951 24.1846 1.95828 23.7449 1.89257 23.2652L0.00881706 9.13274C-0.0100667 8.99148 0.00146266 8.84781 0.0426322 8.71137C0.0838017 8.57493 0.15366 8.44886 0.247526 8.34162C0.341392 8.23438 0.457097 8.14844 0.586886 8.08956C0.716674 8.03069 0.857549 8.00023 1.00007 8.00024H6.54632L13.2501 0.341492C13.3439 0.235085 13.4593 0.149865 13.5886 0.0914917C13.7179 0.0331187 13.8582 0.00292969 14.0001 0.00292969C14.1419 0.00292969 14.2822 0.0331187 14.4115 0.0914917C14.5408 0.149865 14.6562 0.235085 14.7501 0.341492L21.4538 8.00024H27.0001C27.1426 8.00023 27.2835 8.03069 27.4132 8.08956C27.543 8.14844 27.6587 8.23438 27.7526 8.34162C27.8465 8.44886 27.9163 8.57493 27.9575 8.71137C27.9987 8.84781 28.0102 8.99148 27.9913 9.13274ZM9.20382 8.00024H18.7963L14.0001 2.51899L9.20382 8.00024ZM25.8576 10.0002H2.14257L3.87507 23.0002H24.1251L25.8576 10.0002Z" fill="#B5B3B3"/>
</svg>
