<svg width="26" height="24" viewBox="0 0 26 24" fill="none" xmlns="http://www.w3.org/2000/svg">
<path d="M26 8C26.0005 7.90702 25.9879 7.81444 25.9625 7.725L24.1688 1.45C24.0482 1.03364 23.7962 0.667454 23.4504 0.406117C23.1045 0.14478 22.6835 0.00231617 22.25 0H3.75C3.31655 0.00231617 2.89547 0.14478 2.54965 0.406117C2.20382 0.667454 1.95182 1.03364 1.83125 1.45L0.0387507 7.725C0.012928 7.81438 -0.000117927 7.90696 8.03149e-07 8V10C8.03149e-07 10.7762 0.180726 11.5418 0.527865 12.2361C0.875003 12.9303 1.37902 13.5343 2 14V23C2 23.2652 2.10536 23.5196 2.29289 23.7071C2.48043 23.8946 2.73478 24 3 24H23C23.2652 24 23.5196 23.8946 23.7071 23.7071C23.8946 23.5196 24 23.2652 24 23V14C24.621 13.5343 25.125 12.9303 25.4721 12.2361C25.8193 11.5418 26 10.7762 26 10V8ZM3.75 2H22.25L23.6775 7H2.32625L3.75 2ZM10 9H16V10C16 10.7956 15.6839 11.5587 15.1213 12.1213C14.5587 12.6839 13.7957 13 13 13C12.2044 13 11.4413 12.6839 10.8787 12.1213C10.3161 11.5587 10 10.7956 10 10V9ZM8 9V10C7.99982 10.5159 7.86661 11.023 7.61324 11.4724C7.35987 11.9217 6.9949 12.2982 6.55358 12.5653C6.11226 12.8325 5.60951 12.9813 5.09388 12.9975C4.57825 13.0136 4.06717 12.8965 3.61 12.6575C3.54044 12.6034 3.46392 12.5588 3.3825 12.525C2.95884 12.2538 2.61019 11.8804 2.36861 11.4392C2.12702 10.9979 2.00027 10.503 2 10V9H8ZM22 22H4V14.9C4.3292 14.9664 4.66418 14.9999 5 15C5.77623 15 6.54179 14.8193 7.23607 14.4721C7.93035 14.125 8.53427 13.621 9 13C9.46574 13.621 10.0697 14.125 10.7639 14.4721C11.4582 14.8193 12.2238 15 13 15C13.7762 15 14.5418 14.8193 15.2361 14.4721C15.9303 14.125 16.5343 13.621 17 13C17.4657 13.621 18.0697 14.125 18.7639 14.4721C19.4582 14.8193 20.2238 15 21 15C21.3358 14.9999 21.6708 14.9664 22 14.9V22ZM22.6162 12.525C22.5359 12.5589 22.4603 12.603 22.3913 12.6562C21.9341 12.8955 21.423 13.0129 20.9073 12.9969C20.3916 12.981 19.8887 12.8323 19.4473 12.5653C19.0058 12.2982 18.6407 11.9218 18.3872 11.4725C18.1336 11.0231 18.0003 10.516 18 10V9H24V10C23.9996 10.5032 23.8727 10.9981 23.6308 11.4394C23.389 11.8806 23.0401 12.2539 22.6162 12.525Z" fill="#B5B3B3"/>
</svg>
