<svg width="41" height="41" viewBox="0 0 41 41" fill="none" xmlns="http://www.w3.org/2000/svg">
<rect x="0.666504" y="0.5" width="40" height="40" rx="20" fill="#150A47"/>
<path d="M27.4165 10.75H13.9165C13.5187 10.75 13.1371 10.908 12.8558 11.1893C12.5745 11.4706 12.4165 11.8522 12.4165 12.25V28.75C12.4165 29.1478 12.5745 29.5294 12.8558 29.8107C13.1371 30.092 13.5187 30.25 13.9165 30.25H27.4165C27.8143 30.25 28.1959 30.092 28.4772 29.8107C28.7585 29.5294 28.9165 29.1478 28.9165 28.75V12.25C28.9165 11.8522 28.7585 11.4706 28.4772 11.1893C28.1959 10.908 27.8143 10.75 27.4165 10.75ZM16.9165 27.25C16.694 27.25 16.4765 27.184 16.2915 27.0604C16.1065 26.9368 15.9623 26.7611 15.8771 26.5555C15.792 26.35 15.7697 26.1238 15.8131 25.9055C15.8565 25.6873 15.9637 25.4868 16.121 25.3295C16.2783 25.1722 16.4788 25.065 16.697 25.0216C16.9153 24.9782 17.1415 25.0005 17.347 25.0856C17.5526 25.1708 17.7283 25.315 17.8519 25.5C17.9755 25.685 18.0415 25.9025 18.0415 26.125C18.0415 26.4234 17.923 26.7095 17.712 26.9205C17.501 27.1315 17.2149 27.25 16.9165 27.25ZM16.9165 23.5C16.694 23.5 16.4765 23.434 16.2915 23.3104C16.1065 23.1868 15.9623 23.0111 15.8771 22.8055C15.792 22.6 15.7697 22.3738 15.8131 22.1555C15.8565 21.9373 15.9637 21.7368 16.121 21.5795C16.2783 21.4222 16.4788 21.315 16.697 21.2716C16.9153 21.2282 17.1415 21.2505 17.347 21.3356C17.5526 21.4208 17.7283 21.565 17.8519 21.75C17.9755 21.935 18.0415 22.1525 18.0415 22.375C18.0415 22.6734 17.923 22.9595 17.712 23.1705C17.501 23.3815 17.2149 23.5 16.9165 23.5ZM20.6665 27.25C20.444 27.25 20.2265 27.184 20.0415 27.0604C19.8565 26.9368 19.7123 26.7611 19.6271 26.5555C19.542 26.35 19.5197 26.1238 19.5631 25.9055C19.6065 25.6873 19.7137 25.4868 19.871 25.3295C20.0283 25.1722 20.2288 25.065 20.447 25.0216C20.6653 24.9782 20.8915 25.0005 21.097 25.0856C21.3026 25.1708 21.4783 25.315 21.6019 25.5C21.7255 25.685 21.7915 25.9025 21.7915 26.125C21.7915 26.4234 21.673 26.7095 21.462 26.9205C21.251 27.1315 20.9649 27.25 20.6665 27.25ZM20.6665 23.5C20.444 23.5 20.2265 23.434 20.0415 23.3104C19.8565 23.1868 19.7123 23.0111 19.6271 22.8055C19.542 22.6 19.5197 22.3738 19.5631 22.1555C19.6065 21.9373 19.7137 21.7368 19.871 21.5795C20.0283 21.4222 20.2288 21.315 20.447 21.2716C20.6653 21.2282 20.8915 21.2505 21.097 21.3356C21.3026 21.4208 21.4783 21.565 21.6019 21.75C21.7255 21.935 21.7915 22.1525 21.7915 22.375C21.7915 22.6734 21.673 22.9595 21.462 23.1705C21.251 23.3815 20.9649 23.5 20.6665 23.5ZM24.4165 27.25C24.194 27.25 23.9765 27.184 23.7915 27.0604C23.6065 26.9368 23.4623 26.7611 23.3771 26.5555C23.292 26.35 23.2697 26.1238 23.3131 25.9055C23.3565 25.6873 23.4637 25.4868 23.621 25.3295C23.7783 25.1722 23.9788 25.065 24.197 25.0216C24.4153 24.9782 24.6415 25.0005 24.847 25.0856C25.0526 25.1708 25.2283 25.315 25.3519 25.5C25.4755 25.685 25.5415 25.9025 25.5415 26.125C25.5415 26.4234 25.423 26.7095 25.212 26.9205C25.001 27.1315 24.7149 27.25 24.4165 27.25ZM24.4165 23.5C24.194 23.5 23.9765 23.434 23.7915 23.3104C23.6065 23.1868 23.4623 23.0111 23.3771 22.8055C23.292 22.6 23.2697 22.3738 23.3131 22.1555C23.3565 21.9373 23.4637 21.7368 23.621 21.5795C23.7783 21.4222 23.9788 21.315 24.197 21.2716C24.4153 21.2282 24.6415 21.2505 24.847 21.3356C25.0526 21.4208 25.2283 21.565 25.3519 21.75C25.4755 21.935 25.5415 22.1525 25.5415 22.375C25.5415 22.6734 25.423 22.9595 25.212 23.1705C25.001 23.3815 24.7149 23.5 24.4165 23.5ZM25.9165 18.25C25.9165 18.4489 25.8375 18.6397 25.6968 18.7803C25.5562 18.921 25.3654 19 25.1665 19H16.1665C15.9676 19 15.7768 18.921 15.6362 18.7803C15.4955 18.6397 15.4165 18.4489 15.4165 18.25V14.5C15.4165 14.3011 15.4955 14.1103 15.6362 13.9697C15.7768 13.829 15.9676 13.75 16.1665 13.75H25.1665C25.3654 13.75 25.5562 13.829 25.6968 13.9697C25.8375 14.1103 25.9165 14.3011 25.9165 14.5V18.25Z" fill="#C1C1C1"/>
</svg>
