<svg width="17" height="16" viewBox="0 0 17 16" fill="none" xmlns="http://www.w3.org/2000/svg">
<path fill-rule="evenodd" clip-rule="evenodd" d="M11.7498 5.11293L9.08816 2.83175C8.96389 2.72281 8.80701 2.66707 8.6493 2.66699C8.5414 2.66694 8.4331 2.69294 8.33461 2.74577C8.29071 2.76926 8.24901 2.79794 8.21045 2.83175L5.54876 5.11293C5.2692 5.35253 5.2368 5.7734 5.4764 6.05296C5.716 6.33253 6.13687 6.36492 6.41643 6.12532L7.98259 4.78305V9.94614C7.98259 10.3143 8.28107 10.6128 8.64926 10.6128C9.01745 10.6128 9.31593 10.3143 9.31593 9.94614L9.31593 4.78297L10.8822 6.12532C11.1617 6.36492 11.5826 6.33253 11.8222 6.05296C12.0618 5.7734 12.0294 5.35253 11.7498 5.11293ZM4.64925 9.33366C4.64925 8.96547 4.94773 8.66699 5.31592 8.66699H6.31592C6.68411 8.66699 6.98258 8.36852 6.98258 8.00033C6.98258 7.63214 6.68411 7.33366 6.31592 7.33366H5.31592C4.21135 7.33366 3.31592 8.22909 3.31592 9.33366V11.3337C3.31592 12.4382 4.21135 13.3337 5.31592 13.3337H11.9826C13.0872 13.3337 13.9826 12.4382 13.9826 11.3337V9.33366C13.9826 8.22909 13.0872 7.33366 11.9826 7.33366H10.9826C10.6144 7.33366 10.3159 7.63214 10.3159 8.00033C10.3159 8.36852 10.6144 8.66699 10.9826 8.66699H11.9826C12.3508 8.66699 12.6493 8.96547 12.6493 9.33366V11.3337C12.6493 11.7018 12.3508 12.0003 11.9826 12.0003H5.31592C4.94773 12.0003 4.64925 11.7018 4.64925 11.3337V9.33366Z" fill="#3E9CEE"/>
</svg>
