<svg width="40" height="41" viewBox="0 0 40 41" fill="none" xmlns="http://www.w3.org/2000/svg">
<rect y="0.5" width="40" height="40" rx="20" fill="#460068"/>
<path d="M28.25 12.25H11.75C11.3522 12.25 10.9706 12.408 10.6893 12.6893C10.408 12.9706 10.25 13.3522 10.25 13.75V28C10.2501 28.1278 10.2828 28.2535 10.3451 28.3651C10.4074 28.4768 10.4972 28.5706 10.606 28.6378C10.7147 28.7049 10.8389 28.7432 10.9666 28.7489C11.0943 28.7546 11.2213 28.7275 11.3356 28.6703L14 27.3381L16.6644 28.6703C16.7686 28.7225 16.8835 28.7496 17 28.7496C17.1165 28.7496 17.2314 28.7225 17.3356 28.6703L20 27.3381L22.6644 28.6703C22.7686 28.7225 22.8835 28.7496 23 28.7496C23.1165 28.7496 23.2314 28.7225 23.3356 28.6703L26 27.3381L28.6644 28.6703C28.7787 28.7275 28.9057 28.7546 29.0334 28.7489C29.1611 28.7432 29.2853 28.7049 29.394 28.6378C29.5028 28.5706 29.5926 28.4768 29.6549 28.3651C29.7172 28.2535 29.7499 28.1278 29.75 28V13.75C29.75 13.3522 29.592 12.9706 29.3107 12.6893C29.0294 12.408 28.6478 12.25 28.25 12.25ZM24.5 22H15.5C15.3011 22 15.1103 21.921 14.9697 21.7803C14.829 21.6397 14.75 21.4489 14.75 21.25C14.75 21.0511 14.829 20.8603 14.9697 20.7197C15.1103 20.579 15.3011 20.5 15.5 20.5H24.5C24.6989 20.5 24.8897 20.579 25.0303 20.7197C25.171 20.8603 25.25 21.0511 25.25 21.25C25.25 21.4489 25.171 21.6397 25.0303 21.7803C24.8897 21.921 24.6989 22 24.5 22ZM24.5 19H15.5C15.3011 19 15.1103 18.921 14.9697 18.7803C14.829 18.6397 14.75 18.4489 14.75 18.25C14.75 18.0511 14.829 17.8603 14.9697 17.7197C15.1103 17.579 15.3011 17.5 15.5 17.5H24.5C24.6989 17.5 24.8897 17.579 25.0303 17.7197C25.171 17.8603 25.25 18.0511 25.25 18.25C25.25 18.4489 25.171 18.6397 25.0303 18.7803C24.8897 18.921 24.6989 19 24.5 19Z" fill="#C1C1C1"/>
</svg>
