
<svg width="41" height="41" viewBox="0 0 41 41" fill="none" xmlns="http://www.w3.org/2000/svg">
<rect x="0.333496" y="0.5" width="40" height="40" rx="20" fill="#460068"/>
<g clip-path="url(#clip0_39_5575)">
<path d="M29.521 16.7573C29.4835 16.6636 29.4441 16.5698 29.4038 16.4761C28.7989 15.0811 27.82 13.8806 26.5754 13.0073H28.5835C28.7824 13.0073 28.9732 12.9283 29.1138 12.7877C29.2545 12.647 29.3335 12.4562 29.3335 12.2573C29.3335 12.0584 29.2545 11.8676 29.1138 11.727C28.9732 11.5863 28.7824 11.5073 28.5835 11.5073H18.8335C16.7598 11.51 14.763 12.2923 13.2395 13.6991C11.716 15.1059 10.7773 17.0342 10.6097 19.1011C9.9619 19.2621 9.38627 19.6346 8.97398 20.1597C8.5617 20.6847 8.33631 21.3323 8.3335 21.9998C8.3335 22.1987 8.41251 22.3895 8.55317 22.5302C8.69382 22.6708 8.88458 22.7498 9.0835 22.7498C9.28241 22.7498 9.47317 22.6708 9.61383 22.5302C9.75448 22.3895 9.8335 22.1987 9.8335 21.9998C9.83367 21.7263 9.90862 21.4581 10.0502 21.2241C10.1918 20.9901 10.3947 20.7993 10.6369 20.6723C10.8236 22.355 11.5253 23.939 12.646 25.2079L13.8235 28.5042C13.9276 28.7958 14.1194 29.048 14.3725 29.2262C14.6256 29.4045 14.9277 29.5 15.2372 29.4998H16.4297C16.7392 29.4999 17.041 29.4042 17.294 29.226C17.5469 29.0477 17.7385 28.7956 17.8426 28.5042L18.0226 27.9998H23.3944L23.5744 28.5042C23.6785 28.7956 23.8701 29.0477 24.123 29.226C24.376 29.4042 24.6778 29.4999 24.9872 29.4998H26.1797C26.4892 29.4999 26.791 29.4042 27.044 29.226C27.2969 29.0477 27.4885 28.7956 27.5926 28.5042L29.1122 24.2498H29.3335C29.9302 24.2498 30.5025 24.0128 30.9245 23.5908C31.3464 23.1689 31.5835 22.5966 31.5835 21.9998V18.9998C31.5836 18.4355 31.3716 17.8917 30.9896 17.4764C30.6075 17.061 30.0834 16.8044 29.521 16.7573ZM22.5835 15.2498H18.8335C18.6346 15.2498 18.4438 15.1708 18.3032 15.0302C18.1625 14.8895 18.0835 14.6987 18.0835 14.4998C18.0835 14.3009 18.1625 14.1101 18.3032 13.9695C18.4438 13.8288 18.6346 13.7498 18.8335 13.7498H22.5835C22.7824 13.7498 22.9732 13.8288 23.1138 13.9695C23.2545 14.1101 23.3335 14.3009 23.3335 14.4998C23.3335 14.6987 23.2545 14.8895 23.1138 15.0302C22.9732 15.1708 22.7824 15.2498 22.5835 15.2498ZM25.2085 20.4998C24.986 20.4998 24.7685 20.4338 24.5835 20.3102C24.3985 20.1866 24.2543 20.0109 24.1691 19.8053C24.084 19.5998 24.0617 19.3736 24.1051 19.1553C24.1485 18.9371 24.2557 18.7367 24.413 18.5793C24.5703 18.422 24.7708 18.3148 24.989 18.2714C25.2072 18.228 25.4334 18.2503 25.639 18.3355C25.8446 18.4206 26.0203 18.5648 26.1439 18.7498C26.2675 18.9348 26.3335 19.1523 26.3335 19.3748C26.3335 19.6732 26.215 19.9593 26.004 20.1703C25.793 20.3813 25.5069 20.4998 25.2085 20.4998Z" fill="#C1C1C1"/>
</g>
<defs>
<clipPath id="clip0_39_5575">
<rect width="24" height="24" fill="white" transform="translate(8.3335 8.5)"/>
</clipPath>
</defs>
</svg>
