<svg width="18" height="18" viewBox="0 0 18 18" fill="none" xmlns="http://www.w3.org/2000/svg">
<mask id="mask0_39_5840" style="mask-type:luminance" maskUnits="userSpaceOnUse" x="0" y="0" width="18" height="18">
<rect x="0.359375" y="0.360352" width="17.28" height="17.28" fill="white"/>
</mask>
<g mask="url(#mask0_39_5840)">
<path fill-rule="evenodd" clip-rule="evenodd" d="M11.7599 15.8405C13.9676 15.8405 15.6614 15.0431 15.1803 11.8336L14.6201 7.48391C14.3235 5.88244 13.3021 5.26953 12.4057 5.26953H5.07724C4.16776 5.26953 3.20557 5.92858 2.86287 7.48391L2.30268 11.8336C1.89408 14.6806 3.54168 15.8405 5.74946 15.8405H11.7599Z" stroke="#34C759" stroke-width="1.5" stroke-linecap="round" stroke-linejoin="round"/>
<path d="M5.65039 5.11118C5.65039 3.39321 7.04308 2.00052 8.76104 2.00052C9.58832 1.99701 10.3829 2.32319 10.9691 2.90694C11.5554 3.49068 11.8849 4.2839 11.8849 5.11118" stroke="#34C759" stroke-width="1.5" stroke-linecap="round" stroke-linejoin="round"/>
<path d="M6.62598 8.35352H6.65893" stroke="#34C759" stroke-width="1.5" stroke-linecap="round" stroke-linejoin="round"/>
<path d="M10.8242 8.35352H10.8572" stroke="#34C759" stroke-width="1.5" stroke-linecap="round" stroke-linejoin="round"/>
</g>
</svg>
