<svg width="29" height="23" viewBox="0 0 29 23" fill="none" xmlns="http://www.w3.org/2000/svg">
<path d="M24.3553 18.2216C23.7125 17.6485 23.1496 16.9915 22.682 16.2682C22.1715 15.2699 21.8655 14.1797 21.782 13.0616V9.76823C21.7864 8.01197 21.1493 6.31455 19.9905 4.99488C18.8316 3.67521 17.2308 2.82414 15.4887 2.60156V1.74156C15.4887 1.50552 15.3949 1.27914 15.228 1.11224C15.0611 0.94533 14.8347 0.851562 14.5987 0.851562C14.3626 0.851562 14.1362 0.94533 13.9693 1.11224C13.8024 1.27914 13.7087 1.50552 13.7087 1.74156V2.6149C11.9822 2.85351 10.4006 3.70973 9.25702 5.02497C8.11339 6.3402 7.48515 8.02533 7.48867 9.76823V13.0616C7.40517 14.1797 7.09918 15.2699 6.58867 16.2682C6.12925 16.9898 5.57546 17.6467 4.942 18.2216C4.87089 18.284 4.81389 18.3609 4.77481 18.4471C4.73573 18.5334 4.71545 18.6269 4.71533 18.7216V19.6282C4.71533 19.805 4.78557 19.9746 4.91059 20.0996C5.03562 20.2247 5.20519 20.2949 5.382 20.2949H23.9153C24.0921 20.2949 24.2617 20.2247 24.3867 20.0996C24.5118 19.9746 24.582 19.805 24.582 19.6282V18.7216C24.5819 18.6269 24.5616 18.5334 24.5225 18.4471C24.4834 18.3609 24.4264 18.284 24.3553 18.2216ZM6.102 18.9616C6.72227 18.3624 7.2684 17.6909 7.72867 16.9616C8.37174 15.7559 8.74695 14.4256 8.82867 13.0616V9.76823C8.80223 8.98692 8.93328 8.20828 9.21403 7.47867C9.49478 6.74907 9.91947 6.08342 10.4628 5.52136C11.0062 4.95931 11.6571 4.51234 12.3768 4.20708C13.0965 3.90182 13.8702 3.7445 14.652 3.7445C15.4338 3.7445 16.2075 3.90182 16.9272 4.20708C17.6469 4.51234 18.2978 4.95931 18.8412 5.52136C19.3845 6.08342 19.8092 6.74907 20.09 7.47867C20.3707 8.20828 20.5018 8.98692 20.4753 9.76823V13.0616C20.557 14.4256 20.9323 15.7559 21.5753 16.9616C22.0356 17.6909 22.5817 18.3624 23.202 18.9616H6.102Z" fill="#FFAE2C"/>
<path d="M14.6822 22.8149C15.1021 22.8053 15.5051 22.6474 15.8199 22.3692C16.1347 22.091 16.3409 21.7105 16.4022 21.2949H12.8955C12.9585 21.7218 13.1744 22.1113 13.503 22.3909C13.8317 22.6705 14.2507 22.8212 14.6822 22.8149Z" fill="#FFAE2C"/>
</svg>
