<svg width="32" height="32" viewBox="0 0 32 32" fill="none" xmlns="http://www.w3.org/2000/svg">
<path d="M14.2926 19.2924L26.2926 7.29236C26.3855 7.19945 26.4958 7.12575 26.6172 7.07547C26.7386 7.02519 26.8687 6.99931 27.0001 6.99931C27.1315 6.99931 27.2616 7.02519 27.383 7.07547C27.5044 7.12575 27.6147 7.19945 27.7076 7.29236C27.8005 7.38527 27.8742 7.49557 27.9245 7.61697C27.9747 7.73836 28.0006 7.86847 28.0006 7.99986C28.0006 8.13126 27.9747 8.26137 27.9245 8.38276C27.8742 8.50415 27.8005 8.61445 27.7076 8.70736L15.7076 20.7074C15.6147 20.8003 15.5044 20.874 15.383 20.9243C15.2616 20.9745 15.1315 21.0004 15.0001 21.0004C14.8687 21.0004 14.7386 20.9745 14.6172 20.9243C14.4958 20.874 14.3855 20.8003 14.2926 20.7074C14.1997 20.6145 14.126 20.5042 14.0757 20.3828C14.0254 20.2614 13.9995 20.1313 13.9995 19.9999C13.9995 19.8685 14.0254 19.7384 14.0757 19.617C14.126 19.4956 14.1997 19.3853 14.2926 19.2924ZM16.0001 10.9999C16.8687 10.9988 17.7317 11.1394 18.5551 11.4161C18.6801 11.4604 18.8127 11.4794 18.9451 11.472C19.0775 11.4646 19.2071 11.4309 19.3264 11.373C19.4457 11.315 19.5523 11.2338 19.6399 11.1343C19.7275 11.0347 19.7945 10.9187 19.8368 10.793C19.8792 10.6673 19.8961 10.5345 19.8867 10.4022C19.8772 10.2699 19.8415 10.1408 19.7817 10.0224C19.7218 9.90405 19.639 9.79877 19.5381 9.7127C19.4372 9.62664 19.3202 9.56151 19.1938 9.52111C17.6002 8.98387 15.8969 8.8572 14.2413 9.15283C12.5858 9.44845 11.0316 10.1568 9.7224 11.2124C8.41323 12.268 7.39142 13.6367 6.75149 15.1919C6.11156 16.7471 5.87419 18.4386 6.06132 20.1099C6.08837 20.3543 6.20454 20.5802 6.38764 20.7444C6.57073 20.9086 6.8079 20.9995 7.05382 20.9999C7.09007 20.9999 7.12757 20.9999 7.16507 20.9936C7.42861 20.9644 7.66975 20.8317 7.83548 20.6247C8.00121 20.4177 8.07795 20.1534 8.04882 19.8899C8.01628 19.5943 8 19.2972 8.00007 18.9999C8.00239 16.8788 8.84599 14.8454 10.3458 13.3456C11.8456 11.8458 13.879 11.0022 16.0001 10.9999ZM28.4676 12.6249C28.4077 12.508 28.3253 12.4041 28.2252 12.319C28.1251 12.234 28.0093 12.1694 27.8843 12.1292C27.7593 12.0889 27.6275 12.0736 27.4966 12.0843C27.3657 12.0949 27.2382 12.1312 27.1213 12.1911C27.0044 12.251 26.9005 12.3334 26.8155 12.4335C26.7304 12.5335 26.6659 12.6494 26.6256 12.7744C26.5854 12.8994 26.5701 13.0311 26.5807 13.162C26.5913 13.293 26.6277 13.4205 26.6876 13.5374C27.4274 14.9902 27.8643 16.5782 27.9717 18.2051C28.0792 19.8319 27.8549 21.4636 27.3126 23.0011L4.67507 22.9924C4.04348 21.1819 3.8538 19.2467 4.12186 17.348C4.38992 15.4494 5.10795 13.6423 6.21608 12.0775C7.32421 10.5127 8.79035 9.23537 10.4923 8.35212C12.1942 7.46886 14.0826 7.00523 16.0001 6.99986H16.1101C17.9725 7.01157 19.806 7.46118 21.4626 8.31236C21.5798 8.37686 21.7087 8.41719 21.8418 8.43096C21.9748 8.44474 22.1093 8.43167 22.2372 8.39254C22.3652 8.35342 22.4839 8.28902 22.5865 8.20317C22.6891 8.11731 22.7734 8.01175 22.8345 7.89272C22.8955 7.7737 22.9321 7.64363 22.942 7.51023C22.9519 7.37682 22.9349 7.24278 22.8921 7.11605C22.8492 6.98933 22.7814 6.87248 22.6926 6.77244C22.6038 6.67239 22.4958 6.59118 22.3751 6.53361C19.8813 5.25627 17.0616 4.75659 14.2807 5.09922C11.4998 5.44185 8.88573 6.61102 6.77657 8.4555C4.6674 10.3 3.16021 12.7349 2.44995 15.4453C1.73969 18.1556 1.85905 21.0168 2.79257 23.6586C2.93047 24.05 3.18621 24.3891 3.52464 24.6293C3.86307 24.8695 4.26758 24.9989 4.68257 24.9999H27.3163C27.7311 25.0001 28.1357 24.8714 28.4741 24.6316C28.8125 24.3917 29.0679 24.0526 29.2051 23.6611C29.8358 21.8672 30.0956 19.964 29.9689 18.0667C29.8421 16.1694 29.3313 14.3176 28.4676 12.6236V12.6249Z" fill="#B5B3B3"/>
</svg>
