<svg width="32" height="32" viewBox="0 0 32 32" fill="none" xmlns="http://www.w3.org/2000/svg">
<path d="M21 14C21 15.3845 20.5895 16.7379 19.8203 17.889C19.0512 19.0401 17.9579 19.9373 16.6788 20.4672C15.3997 20.997 13.9923 21.1356 12.6344 20.8655C11.2765 20.5954 10.0293 19.9287 9.05029 18.9497C8.07132 17.9708 7.40464 16.7235 7.13454 15.3656C6.86444 14.0078 7.00307 12.6003 7.53288 11.3212C8.0627 10.0421 8.9599 8.94888 10.111 8.17971C11.2622 7.41054 12.6156 7 14 7C15.8566 7 17.637 7.7375 18.9498 9.05025C20.2625 10.363 21 12.1435 21 14ZM28.7075 28.7075C28.6147 28.8005 28.5044 28.8742 28.383 28.9246C28.2616 28.9749 28.1315 29.0008 28 29.0008C27.8686 29.0008 27.7385 28.9749 27.6171 28.9246C27.4957 28.8742 27.3854 28.8005 27.2925 28.7075L21.035 22.4488C18.8589 24.2591 16.0687 25.1609 13.2446 24.9665C10.4206 24.7721 7.78018 23.4965 5.87265 21.4051C3.96511 19.3136 2.93729 16.5672 3.00296 13.7373C3.06864 10.9073 4.22276 8.21162 6.22527 6.21088C8.22777 4.21015 10.9245 3.05841 13.7545 2.99524C16.5845 2.93206 19.33 3.96231 21.4197 5.8717C23.5095 7.78108 24.7828 10.4226 24.9747 13.2468C25.1666 16.071 24.2623 18.8605 22.45 21.035L28.7075 27.2925C28.8005 27.3854 28.8743 27.4957 28.9246 27.6171C28.9749 27.7385 29.0008 27.8686 29.0008 28C29.0008 28.1314 28.9749 28.2615 28.9246 28.3829C28.8743 28.5043 28.8005 28.6146 28.7075 28.7075ZM14 23C15.7801 23 17.5201 22.4722 19.0002 21.4832C20.4802 20.4943 21.6338 19.0887 22.315 17.4442C22.9961 15.7996 23.1744 13.99 22.8271 12.2442C22.4798 10.4984 21.6227 8.89471 20.364 7.63604C19.1053 6.37737 17.5017 5.5202 15.7559 5.17293C14.01 4.82567 12.2004 5.0039 10.5559 5.68509C8.91135 6.36628 7.50575 7.51983 6.51681 8.99987C5.52788 10.4799 5.00004 12.22 5.00004 14C5.00269 16.3861 5.95175 18.6738 7.639 20.361C9.32625 22.0483 11.6139 22.9974 14 23Z" fill="#CCCBCB"/>
</svg>
