<svg width="16" height="14" viewBox="0 0 16 14" fill="none" xmlns="http://www.w3.org/2000/svg">
<path fill-rule="evenodd" clip-rule="evenodd" d="M0.801501 3.50327C0.801606 1.85585 2.13701 0.520508 3.78446 0.520508H12.2171C13.8647 0.520508 15.1991 1.85595 15.1993 3.50307M15.1993 3.50307L15.2008 5.44923C15.2009 5.59251 15.144 5.72997 15.0428 5.83132C14.9415 5.93268 14.8041 5.98963 14.6608 5.98963C14.0659 5.98963 13.588 6.46746 13.588 7.06172C13.588 7.6554 14.0661 8.1338 14.6608 8.1338C14.959 8.1338 15.2008 8.37556 15.2008 8.6738V10.6178C15.2008 12.2652 13.8662 13.6008 12.2178 13.6008H3.78302C2.1353 13.6008 0.800781 12.2651 0.800781 10.6178V8.6738C0.800781 8.37556 1.04255 8.1338 1.34078 8.1338C1.93463 8.1338 2.41286 7.65556 2.41286 7.06172C2.41286 6.49501 1.96328 6.05227 1.34078 6.05227C1.19753 6.05227 1.06015 5.99535 0.958875 5.89404C0.8576 5.79273 0.80073 5.65532 0.800781 5.51207L0.801501 3.50327C0.801501 3.50321 0.801501 3.50334 0.801501 3.50327M1.8815 3.50347L1.88095 5.03676C2.79355 5.25924 3.49286 6.0375 3.49286 7.06172C3.49286 8.06547 2.80894 8.90671 1.88078 9.14575V10.6178C1.88078 11.669 2.73218 12.5208 3.78302 12.5208H12.2178C13.2695 12.5208 14.1208 11.6689 14.1208 10.6178V9.14582C13.1921 8.9069 12.508 8.06569 12.508 7.06172C12.508 6.05715 13.192 5.21654 14.1204 4.97766L14.1193 3.50387C14.1193 2.45261 13.2679 1.60051 12.2171 1.60051H3.78446C2.73342 1.60051 1.8815 2.45242 1.8815 3.50347ZM0.801501 3.50327L15.1993 3.50307L0.801501 3.50327Z" fill="#007AFF"/>
</svg>
