<svg width="57" height="56" viewBox="0 0 57 56" fill="none" xmlns="http://www.w3.org/2000/svg">
<rect width="56" height="56" rx="8" fill="url(#paint0_linear_230_466)"/>
<g filter="url(#filter0_d_230_466)">
<path d="M6.60051 33V23.34H12.8305V24.81H8.25251V27.736H12.2705V29.206H8.25251V33H6.60051ZM14.1616 28.17C14.1616 27.3673 14.2736 26.658 14.4976 26.042C14.7216 25.4167 15.0343 24.894 15.4356 24.474C15.8369 24.054 16.2989 23.7367 16.8216 23.522C17.3536 23.298 17.9183 23.186 18.5156 23.186C19.1129 23.186 19.6729 23.298 20.1956 23.522C20.7276 23.7367 21.1943 24.054 21.5956 24.474C21.9969 24.894 22.3096 25.4167 22.5336 26.042C22.7669 26.658 22.8836 27.3673 22.8836 28.17C22.8836 28.9727 22.7669 29.6867 22.5336 30.312C22.3096 30.928 21.9969 31.446 21.5956 31.866C21.1943 32.286 20.7276 32.608 20.1956 32.832C19.6729 33.0467 19.1129 33.154 18.5156 33.154C17.9183 33.154 17.3536 33.0467 16.8216 32.832C16.2989 32.608 15.8369 32.286 15.4356 31.866C15.0343 31.446 14.7216 30.928 14.4976 30.312C14.2736 29.6867 14.1616 28.9727 14.1616 28.17ZM15.8556 28.17C15.8556 28.7487 15.9209 29.2573 16.0516 29.696C16.1916 30.1253 16.3783 30.4847 16.6116 30.774C16.8543 31.0633 17.1343 31.2827 17.4516 31.432C17.7783 31.572 18.1329 31.642 18.5156 31.642C18.8983 31.642 19.2483 31.572 19.5656 31.432C19.8923 31.2827 20.1723 31.0633 20.4056 30.774C20.6483 30.4847 20.8349 30.1253 20.9656 29.696C21.1056 29.2573 21.1756 28.7487 21.1756 28.17C21.1756 27.5913 21.1056 27.0873 20.9656 26.658C20.8349 26.2193 20.6483 25.8553 20.4056 25.566C20.1723 25.2767 19.8923 25.062 19.5656 24.922C19.2483 24.7727 18.8983 24.698 18.5156 24.698C18.1329 24.698 17.7783 24.7727 17.4516 24.922C17.1343 25.062 16.8543 25.2767 16.6116 25.566C16.3783 25.8553 16.1916 26.2193 16.0516 26.658C15.9209 27.0873 15.8556 27.5913 15.8556 28.17ZM24.9755 33V23.34H28.3775C29.0308 23.34 29.6188 23.4613 30.1415 23.704C30.6642 23.9467 31.0795 24.2967 31.3875 24.754C31.7048 25.2113 31.8635 25.7667 31.8635 26.42C31.8635 27.148 31.6675 27.75 31.2755 28.226C30.8835 28.702 30.3795 29.0427 29.7635 29.248L32.1155 33H30.2115L28.1395 29.458H26.6275V33H24.9755ZM26.6275 28.058H28.2515C28.8022 28.058 29.2548 27.918 29.6095 27.638C29.9735 27.358 30.1555 26.952 30.1555 26.42C30.1555 25.8973 29.9782 25.5007 29.6235 25.23C29.2688 24.95 28.8115 24.81 28.2515 24.81H26.6275V28.058ZM33.604 31.88L38.42 24.81H33.744V23.34H40.59V24.46L35.788 31.53H40.73V33H33.604V31.88ZM41.724 33L45.378 23.34H46.89L50.544 33H48.766L47.688 30.018L48.64 30.578H43.572L44.51 30.046L43.446 33H41.724ZM44.566 29.864L44.076 29.164H48.136L47.646 29.864L45.854 24.894H46.358L44.566 29.864Z" fill="#FAFAFA"/>
</g>
<defs>
<filter id="filter0_d_230_466" x="0.600586" y="21.186" width="55.9434" height="21.968" filterUnits="userSpaceOnUse" color-interpolation-filters="sRGB">
<feFlood flood-opacity="0" result="BackgroundImageFix"/>
<feColorMatrix in="SourceAlpha" type="matrix" values="0 0 0 0 0 0 0 0 0 0 0 0 0 0 0 0 0 0 127 0" result="hardAlpha"/>
<feOffset dy="4"/>
<feGaussianBlur stdDeviation="3"/>
<feComposite in2="hardAlpha" operator="out"/>
<feColorMatrix type="matrix" values="0 0 0 0 0 0 0 0 0 0 0 0 0 0 0 0 0 0 0.25 0"/>
<feBlend mode="normal" in2="BackgroundImageFix" result="effect1_dropShadow_230_466"/>
<feBlend mode="normal" in="SourceGraphic" in2="effect1_dropShadow_230_466" result="shape"/>
</filter>
<linearGradient id="paint0_linear_230_466" x1="6.53333" y1="18.5455" x2="31.9691" y2="21.4691" gradientUnits="userSpaceOnUse">
<stop stop-color="#8909C8"/>
<stop offset="1" stop-color="#361DA7"/>
</linearGradient>
</defs>
</svg>
