<svg width="25" height="24" viewBox="0 0 25 24" fill="none" xmlns="http://www.w3.org/2000/svg">
<g clip-path="url(#clip0_69_294)">
<path d="M12.1756 0.75C10.0569 0.751693 7.98172 1.35165 6.18896 2.4808H18.1458C16.3578 1.35461 14.2887 0.754774 12.1756 0.75Z" fill="#C72639"/>
<path d="M6.18896 2.48096C5.41668 2.96985 4.70686 3.55104 4.0752 4.21167H20.2893C19.6484 3.54913 18.9285 2.96787 18.1458 2.48096H6.18896Z" fill="#0D0D0D"/>
<path d="M4.07559 4.21143C3.56498 4.74228 3.10774 5.322 2.71045 5.94223H21.6544C21.2573 5.32201 20.8002 4.7423 20.2897 4.21143H4.07559Z" fill="#C72639"/>
<path d="M2.71002 5.94238C2.35494 6.49156 2.04842 7.07066 1.79395 7.6731H22.549C22.3013 7.0714 22.0018 6.49232 21.654 5.94238H2.71002Z" fill="#0D0D0D"/>
<path d="M1.79416 7.67285C1.56381 8.23396 1.37922 8.81278 1.24219 9.40366H23.1086C22.9691 8.81257 22.782 8.23374 22.5492 7.67285H1.79416Z" fill="#C72639"/>
<path d="M1.24234 9.40381C1.10645 9.97277 1.01514 10.5515 0.969238 11.1346H23.3893C23.3409 10.5513 23.2471 9.97256 23.1087 9.40381H1.24234Z" fill="#0D0D0D"/>
<path d="M0.969086 11.1348C0.943544 11.4226 0.929099 11.7112 0.925781 12.0001C0.926876 12.2889 0.939092 12.5776 0.962402 12.8655H23.3825C23.408 12.5777 23.4225 12.289 23.4258 12.0001C23.4247 11.7113 23.4125 11.4226 23.3892 11.1348H0.969086Z" fill="#C72639"/>
<path d="M0.962402 12.8652C1.01077 13.4486 1.10459 14.0273 1.24301 14.596H23.1094C23.2453 14.0271 23.3366 13.4484 23.3825 12.8652H0.962402Z" fill="#0D0D0D"/>
<path d="M1.24316 14.5962C1.3826 15.1873 1.56968 15.7661 1.80255 16.327H22.5576C22.7879 15.7659 22.9725 15.1871 23.1095 14.5962H1.24316Z" fill="#C72639"/>
<path d="M1.80225 16.3271C2.04994 16.9288 2.34937 17.5079 2.69717 18.0579H21.6412C21.9963 17.5087 22.3028 16.9296 22.5573 16.3271H1.80225Z" fill="#0D0D0D"/>
<path d="M2.69727 18.0576C3.09444 18.6778 3.55156 19.2576 4.06204 19.7884H20.2761C20.7867 19.2576 21.244 18.6779 21.6413 18.0576H2.69727Z" fill="#C72639"/>
<path d="M4.06201 19.7886C4.70289 20.4511 5.42276 21.0324 6.20544 21.5193H18.1623C18.9346 21.0304 19.6444 20.4492 20.2761 19.7886H4.06201Z" fill="#0D0D0D"/>
<path d="M6.20557 21.519C7.9936 22.6452 10.0627 23.2451 12.1758 23.2498C14.2945 23.2482 16.3697 22.6482 18.1624 21.519H6.20557Z" fill="#C72639"/>
<path d="M12.1758 0.75C9.1921 0.75 6.33061 1.93526 4.22083 4.04505C2.11105 6.15483 0.925781 9.01631 0.925781 12C0.927253 12.2973 0.940508 12.5944 0.965515 12.8906H13.0664V0.794586C12.7702 0.767959 12.4731 0.753086 12.1758 0.75Z" fill="#45447F"/>
<path d="M8.14974 1.50847C7.99984 1.56319 7.85113 1.62109 7.70369 1.68214L7.86803 1.80702L7.75688 2.16618L8.05132 1.94636L8.35436 2.17671L8.24056 1.805L8.5436 1.57878H8.17125L8.14974 1.50847ZM10.058 1.20117L9.94114 1.57875H9.57009L9.87044 1.80704L9.75927 2.16616L10.0537 1.94635L10.3568 2.17669L10.2429 1.80505L10.546 1.57875H10.1737L10.058 1.20117ZM12.0604 1.20117L11.9435 1.57875H11.5725L11.8728 1.80704L11.7617 2.16616L12.0561 1.94635L12.3591 2.17669L12.2453 1.80505L12.5484 1.57875H12.176L12.0604 1.20117ZM5.25521 3.14726C5.2023 3.18671 5.14975 3.22663 5.09755 3.26701L5.35079 3.45955L5.25521 3.14726ZM7.05445 2.484L6.93756 2.86158H6.56651L6.86686 3.08987L6.75569 3.44899L7.05011 3.22918L7.35318 3.45952L7.23937 3.08788L7.5424 2.86158H7.17008L7.05445 2.484ZM9.05684 2.484L8.93995 2.86158H8.56889L8.86925 3.08987L8.75808 3.44899L9.0525 3.22918L9.35556 3.45952L9.24176 3.08788L9.54478 2.86158H9.17247L9.05684 2.484ZM11.0592 2.484L10.9423 2.86158H10.5713L10.8716 3.08987L10.7605 3.44899L11.0549 3.22918L11.3579 3.45952L11.2441 3.08788L11.5472 2.86158H11.1748L11.0592 2.484ZM4.15721 4.11415C4.04625 4.23161 3.93782 4.35145 3.83202 4.47358L3.75209 4.73176L4.04653 4.51194L4.34957 4.74229L4.23577 4.37068L4.53881 4.14436H4.16646L4.15721 4.11415ZM6.05326 3.76678L5.93637 4.14436H5.56532L5.86567 4.37265L5.7545 4.73176L6.04891 4.51196L6.35198 4.7423L6.23817 4.37066L6.54121 4.14436H6.16889L6.05326 3.76678ZM8.05564 3.76678L7.93875 4.14436H7.5677L7.86806 4.37265L7.75689 4.73176L8.0513 4.51196L8.35436 4.7423L8.24056 4.37066L8.54359 4.14436H8.17127L8.05564 3.76678ZM10.058 3.76678L9.94114 4.14436H9.57009L9.87044 4.37265L9.75927 4.73176L10.0537 4.51196L10.3568 4.7423L10.2429 4.37066L10.546 4.14436H10.1737L10.058 3.76678ZM12.0604 3.76678L11.9435 4.14436H11.5725L11.8728 4.37265L11.7617 4.73176L12.0561 4.51196L12.3591 4.7423L12.2453 4.37066L12.5484 4.14436H12.176L12.0604 3.76678ZM3.13466 5.32704C3.03101 5.46518 2.93055 5.60569 2.83336 5.74846L2.75096 6.0146L3.04531 5.79478L3.34844 6.02513L3.23464 5.65352L3.53759 5.4272H3.16533L3.13466 5.32704ZM5.05207 5.04961L4.93518 5.42718H4.56412L4.86448 5.65548L4.75331 6.01459L5.04772 5.79479L5.35079 6.02513L5.23698 5.65348L5.54001 5.42718H5.16769L5.05207 5.04961ZM7.05445 5.04961L6.93756 5.42718H6.56651L6.86686 5.65548L6.75569 6.01459L7.05011 5.79479L7.35318 6.02513L7.23937 5.65348L7.5424 5.42718H7.17008L7.05445 5.04961ZM9.05684 5.04961L8.93995 5.42718H8.56889L8.86925 5.65548L8.75808 6.01459L9.0525 5.79479L9.35556 6.02513L9.24176 5.65348L9.54478 5.42718H9.17247L9.05684 5.04961ZM11.0592 5.04961L10.9423 5.42718H10.5713L10.8716 5.65548L10.7605 6.01459L11.0549 5.79479L11.3579 6.02513L11.2441 5.65348L11.5472 5.42718H11.1748L11.0592 5.04961ZM2.25722 6.71003C2.18998 6.83605 2.12515 6.96333 2.06276 7.09181L2.34722 7.30797L2.23342 6.93635L2.53646 6.71003H2.25722ZM4.05088 6.33244L3.93399 6.71001H3.56293L3.86329 6.93831L3.75212 7.29742L4.04653 7.07762L4.3496 7.30796L4.23579 6.93631L4.53882 6.71001H4.1665L4.05088 6.33244ZM6.05326 6.33244L5.93637 6.71001H5.56532L5.86567 6.93831L5.7545 7.29742L6.04891 7.07762L6.35198 7.30796L6.23817 6.93631L6.54121 6.71001H6.16889L6.05326 6.33244ZM8.05564 6.33244L7.93875 6.71001H7.5677L7.86806 6.93831L7.75689 7.29742L8.0513 7.07762L8.35436 7.30796L8.24056 6.93631L8.54359 6.71001H8.17127L8.05564 6.33244ZM10.058 6.33244L9.94114 6.71001H9.57009L9.87044 6.93831L9.75927 7.29742L10.0537 7.07762L10.3568 7.30796L10.2429 6.93631L10.546 6.71001H10.1737L10.058 6.33244ZM12.0604 6.33244L11.9435 6.71001H11.5725L11.8728 6.93831L11.7617 7.29742L12.0561 7.07762L12.3591 7.30796L12.2453 6.93631L12.5484 6.71001H12.176L12.0604 6.33244ZM3.04968 7.61522L2.9328 7.99279H2.56174L2.8621 8.22109L2.75093 8.5802L3.04534 8.3604L3.34841 8.59074L3.2346 8.21909L3.53763 7.99279H3.16531L3.04968 7.61522ZM5.05207 7.61522L4.93518 7.99279H4.56412L4.86448 8.22109L4.75331 8.5802L5.04772 8.3604L5.35079 8.59074L5.23698 8.21909L5.54001 7.99279H5.16769L5.05207 7.61522ZM7.05445 7.61522L6.93756 7.99279H6.56651L6.86686 8.22109L6.75569 8.5802L7.05011 8.3604L7.35318 8.59074L7.23937 8.21909L7.5424 7.99279H7.17008L7.05445 7.61522ZM9.05684 7.61522L8.93995 7.99279H8.56889L8.86925 8.22109L8.75808 8.5802L9.0525 8.3604L9.35556 8.59074L9.24176 8.21909L9.54478 7.99279H9.17247L9.05684 7.61522ZM11.0592 7.61522L10.9423 7.99279H10.5713L10.8716 8.22109L10.7605 8.5802L11.0549 8.3604L11.3579 8.59074L11.2441 8.21909L11.5472 7.99279H11.1748L11.0592 7.61522ZM2.04849 8.89804L1.9316 9.27562H1.56055L1.86091 9.50392L1.74973 9.86303L2.04415 9.64322L2.34721 9.87357L2.23341 9.50192L2.53644 9.27562H2.16412L2.04849 8.89804ZM4.05088 8.89804L3.93399 9.27562H3.56293L3.86329 9.50392L3.75212 9.86303L4.04653 9.64322L4.3496 9.87357L4.23579 9.50192L4.53882 9.27562H4.1665L4.05088 8.89804ZM6.05326 8.89804L5.93637 9.27562H5.56532L5.86567 9.50392L5.7545 9.86303L6.04891 9.64322L6.35198 9.87357L6.23817 9.50192L6.54121 9.27562H6.16889L6.05326 8.89804ZM8.05564 8.89804L7.93875 9.27562H7.5677L7.86806 9.50392L7.75689 9.86303L8.0513 9.64322L8.35436 9.87357L8.24056 9.50192L8.54359 9.27562H8.17127L8.05564 8.89804ZM10.058 8.89804L9.94114 9.27562H9.57009L9.87044 9.50392L9.75927 9.86303L10.0537 9.64322L10.3568 9.87357L10.2429 9.50192L10.546 9.27562H10.1737L10.058 8.89804ZM12.0604 8.89804L11.9435 9.27562H11.5725L11.8728 9.50392L11.7617 9.86303L12.0561 9.64322L12.3591 9.87357L12.2453 9.50192L12.5484 9.27562H12.176L12.0604 8.89804ZM3.04968 10.1809L2.9328 10.5584H2.56174L2.8621 10.7867L2.75093 11.1459L3.04534 10.9261L3.34841 11.1564L3.2346 10.7847L3.53763 10.5584H3.16531L3.04968 10.1809ZM5.05207 10.1809L4.93518 10.5584H4.56412L4.86448 10.7867L4.75331 11.1459L5.04772 10.9261L5.35079 11.1564L5.23698 10.7847L5.54001 10.5584H5.16769L5.05207 10.1809ZM7.05445 10.1809L6.93756 10.5584H6.56651L6.86686 10.7867L6.75569 11.1459L7.05011 10.9261L7.35318 11.1564L7.23937 10.7847L7.5424 10.5584H7.17008L7.05445 10.1809ZM9.05684 10.1809L8.93995 10.5584H8.56889L8.86925 10.7867L8.75808 11.1459L9.0525 10.9261L9.35556 11.1564L9.24176 10.7847L9.54478 10.5584H9.17247L9.05684 10.1809ZM11.0592 10.1809L10.9423 10.5584H10.5713L10.8716 10.7867L10.7605 11.1459L11.0549 10.9261L11.3579 11.1564L11.2441 10.7847L11.5472 10.5584H11.1748L11.0592 10.1809ZM2.04849 11.4637L1.9316 11.8412H1.56055L1.86091 12.0695L1.74973 12.4286L2.04415 12.2088L2.34721 12.4392L2.23341 12.0675L2.53644 11.8412H2.16412L2.04849 11.4637ZM4.05088 11.4637L3.93399 11.8412H3.56293L3.86329 12.0695L3.75212 12.4286L4.04653 12.2088L4.3496 12.4392L4.23579 12.0675L4.53882 11.8412H4.1665L4.05088 11.4637ZM6.05326 11.4637L5.93637 11.8412H5.56532L5.86567 12.0695L5.7545 12.4286L6.04891 12.2088L6.35198 12.4392L6.23817 12.0675L6.54121 11.8412H6.16889L6.05326 11.4637ZM8.05564 11.4637L7.93875 11.8412H7.5677L7.86806 12.0695L7.75689 12.4286L8.0513 12.2088L8.35436 12.4392L8.24056 12.0675L8.54359 11.8412H8.17127L8.05564 11.4637ZM10.058 11.4637L9.94114 11.8412H9.57009L9.87044 12.0695L9.75927 12.4286L10.0537 12.2088L10.3568 12.4392L10.2429 12.0675L10.546 11.8412H10.1737L10.058 11.4637ZM12.0604 11.4637L11.9435 11.8412H11.5725L11.8728 12.0695L11.7617 12.4286L12.0561 12.2088L12.3591 12.4392L12.2453 12.0675L12.5484 11.8412H12.176L12.0604 11.4637Z" fill="#0D0D0D"/>
</g>
<defs>
<clipPath id="clip0_69_294">
<rect width="24" height="24" fill="white" transform="translate(0.175781)"/>
</clipPath>
</defs>
</svg>
